<?xml version="1.0" standalone="no"?><!DOCTYPE svg PUBLIC "-//W3C//DTD SVG 1.1//EN" "http://www.w3.org/Graphics/SVG/1.1/DTD/svg11.dtd"><svg t="1624244294510" class="icon" viewBox="0 0 1024 1024" version="1.1" xmlns="http://www.w3.org/2000/svg" p-id="8092" xmlns:xlink="http://www.w3.org/1999/xlink" width="200" height="200"><defs><style type="text/css"></style></defs><path d="M659.136 598.848 591.744 565.184c-31.168 2.944-64 4.48-98.048 4.48-199.488 0-361.152-53.248-361.152-118.912 0-24.384 22.4-47.04 60.672-65.92l-34.048-24.32C122.24 382.784 98.56 409.088 92.864 437.376L92.736 437.504c0 0 0 0.128 0 0.192C91.84 442.048 91.392 446.4 91.392 450.752c0 0.128 0 0.128 0 0.192-1.088 11.456-2.56 27.52-3.264 37.504 0 0.256 0 0.448 0 0.704C87.424 495.808 86.976 502.528 86.976 509.248c0 153.344 181.056 277.632 404.48 277.632 130.752 0 246.912-42.624 320.832-108.608L657.92 599.04C658.304 598.976 658.752 598.912 659.136 598.848z" p-id="8093"></path><path d="M854.784 450.752c0 10.432-4.032 20.48-11.584 30.016l4.288 3.328c-1.152 0.896-2.112 1.856-3.328 2.688l51.328 34.944C898.24 485.76 896 450.752 896 450.752c0-76.992-132.8-141.44-310.976-158.144l52.48 49.088C765.376 360 854.784 401.984 854.784 450.752z" p-id="8094"></path><path d="M710.272 784.64c-36.032 23.872-116.352 40.448-209.664 40.448-93.312 0-173.568-16.576-209.6-40.384-0.96 0.576-1.92 1.088-2.752 1.6l-20.352-14.144 0 42.88c0 0 7.104 13.12 17.28 19.84 0.064 0 0.064 0 0.064 0 32.704 25.088 116.8 42.88 215.424 42.88 122.048 0 221.824-27.328 229.44-61.824 0.32-0.512 0.512-0.896 0.512-0.896l0-42.88-19.008 13.248C711.104 785.152 710.656 784.896 710.272 784.64z" p-id="8095"></path><path d="M147.392 216c0 0-22.272-20.032-55.616 16.32l0 54.144 775.232 364.224c0 0 38.592 5.248 16.32-20.736C861.12 604.032 147.392 216 147.392 216z" p-id="8096"></path><path d="M976.128 622.528 266.816 147.712c-35.584-9.6-54.144 31.872-54.144 31.872l0 37.824c0 0 705.536 405.056 746.368 426.56C999.872 665.536 976.128 622.528 976.128 622.528z" p-id="8097"></path></svg>