<?xml version="1.0" standalone="no"?><!DOCTYPE svg PUBLIC "-//W3C//DTD SVG 1.1//EN" "http://www.w3.org/Graphics/SVG/1.1/DTD/svg11.dtd"><svg t="1624333500467" class="icon" viewBox="0 0 1024 1024" version="1.1" xmlns="http://www.w3.org/2000/svg" p-id="4935" xmlns:xlink="http://www.w3.org/1999/xlink" width="200" height="200"><defs><style type="text/css"></style></defs><path d="M664.896 96A64 64 0 0 1 715.2 120.464l204.112 259.76A32 32 0 0 1 894.16 432H131.072a32 32 0 0 1-24.864-52.128L316.784 119.728A64 64 0 0 1 366.56 96h298.352z m0 32H366.528a32 32 0 0 0-22.96 9.712l-1.92 2.16L131.104 400h763.072L690.048 140.224a32 32 0 0 0-22.496-12.112L664.896 128zM560 624a32 32 0 0 1 32 32v224a32 32 0 0 1-32 32H368a32 32 0 0 1-32-32V656a32 32 0 0 1 32-32h192z m0 32H368v224h192V656zM736 480a32 32 0 0 1 32 32v80a32 32 0 0 1-32 32h-80a32 32 0 0 1-32-32v-80a32 32 0 0 1 32-32h80z m0 32h-80v80h80v-80z" p-id="4936"></path><path d="M832 400a32 32 0 0 1 32 32v448a32 32 0 0 1-32 32H192a32 32 0 0 1-32-32V432a32 32 0 0 1 32-32h640z m0 32H192v448h640V432z" p-id="4937"></path></svg>