<?xml version="1.0" standalone="no"?><!DOCTYPE svg PUBLIC "-//W3C//DTD SVG 1.1//EN" "http://www.w3.org/Graphics/SVG/1.1/DTD/svg11.dtd"><svg t="1623599114575" class="icon" viewBox="0 0 1024 1024" version="1.1" xmlns="http://www.w3.org/2000/svg" p-id="597" xmlns:xlink="http://www.w3.org/1999/xlink" width="200" height="200"><defs><style type="text/css"></style></defs><path d="M229.981 522.341a23.7 23.7 0 0 0 4.57800001 6.474L684.337 978.591c9.286 9.286 24.341 9.286 33.628 0l71.46-71.45900001c9.285-9.286 9.285-24.342 0-33.62799998L427.919 512 789.425 150.49599999c9.286-9.286 9.286-24.344 0-33.62999999l-71.459-71.458c-9.286-9.286-24.342-9.285-33.62799999 0.001l-378.31600001 378.315s0 0.00199999-0.002 0.002l-71.459 71.459a24.005 24.005 0 0 0-1.633 1.807c-5.923 7.259-6.888 17.193-2.947 25.35z" p-id="598"></path></svg>