<?xml version="1.0" standalone="no"?><!DOCTYPE svg PUBLIC "-//W3C//DTD SVG 1.1//EN" "http://www.w3.org/Graphics/SVG/1.1/DTD/svg11.dtd"><svg t="1622875658009" class="icon" viewBox="0 0 1024 1024" version="1.1" xmlns="http://www.w3.org/2000/svg" p-id="13326" xmlns:xlink="http://www.w3.org/1999/xlink" width="200" height="200"><defs><style type="text/css"></style></defs><path d="M35.4432 817.92C51.2 807.3984 239.9104 650.112 250.3936 637.0048c13.1072-10.4832 26.2272-10.4832 26.2272-10.4832h314.56s49.8176 5.248 49.8176 47.1808c0 26.2144-18.3552 52.48-49.8176 57.6768-26.2144 5.248-91.7504 10.4832-138.9312 13.1072-15.7312 0 0 10.4832 0 10.4832l60.3008 39.3216h209.7152s86.5024-60.288 141.5552-99.6096c91.7376-60.3008 125.824 0 125.824 0s10.4832 20.9664 0 34.0736C939.84 770.7008 764.16 917.504 751.0912 928s-28.8256 5.248-28.8256 5.248H360.4992a90.56 90.56 0 0 0-47.1808 18.3424s-57.6768 47.1936-70.784 57.6768c-28.8384 20.9664-44.5696 0-44.5696 0l-162.56-165.12s-15.7312-15.7184 0-26.2144z m754.9696-511.2192c0 165.12-133.696 301.4656-301.4656 301.4656S187.4816 474.4832 187.4816 306.7008 321.1776 5.2352 488.96 5.2352s301.4528 133.696 301.4528 301.4656zM640.9984 146.8032c7.8592-15.7312 0-28.8384-15.7312-39.3216-18.3552-10.496-34.0864-7.872-47.1936 10.4832L486.4 251.6608l-97.0624-131.072C376.2304 104.8576 363.1232 99.6096 344.768 107.52s-23.5904 20.9664-15.7312 41.9328l94.3744 131.072H347.392c-7.8592 7.872-13.1072 13.1072-13.1072 23.6032s5.248 18.3424 13.1072 23.5904h99.6096v36.6976H347.392c-10.4832 5.248-13.1072 13.1072-13.1072 23.5904 2.56 10.4832 5.248 18.3552 13.1072 23.6032h99.6096v96.9856c-2.56 26.2144 10.4832 41.9456 36.6976 41.9456s39.3344-13.1072 39.3344-41.9456v-97.024h99.6096q15.7312-7.872 15.7312-23.6032t-15.7312-23.5904h-99.6096V325.12h99.6096c10.4832-7.872 15.7312-13.1072 15.7312-23.5904s-5.248-18.3552-15.7312-23.5904h-76.0192l94.3744-131.072z m0 0" p-id="13327"></path></svg>