<?xml version="1.0" standalone="no"?><!DOCTYPE svg PUBLIC "-//W3C//DTD SVG 1.1//EN" "http://www.w3.org/Graphics/SVG/1.1/DTD/svg11.dtd"><svg t="1624333652116" class="icon" viewBox="0 0 1024 1024" version="1.1" xmlns="http://www.w3.org/2000/svg" p-id="6596" xmlns:xlink="http://www.w3.org/1999/xlink" width="200" height="200"><defs><style type="text/css"></style></defs><path d="M726.326 916.746c-27.914 0-56.191-6.068-82.405-18.69-115.659-50.366-219.788-121.363-309.233-211.05-89.687-89.687-160.563-193.938-210.686-309.84-1.214-2.548-1.821-3.884-3.398-7.767l-1.942-4.491c-10.559-26.214-13.107-63.715-6.796-100.125 7.282-41.628 25.244-78.643 50.73-104.129 26.578-26.578 60.075-44.661 96.726-52.307 25.729-5.34 52.065 5.219 67.235 26.821l133.014 189.933c15.17 21.724 16.02 50.366 1.942 72.94-7.646 12.379-16.869 23.908-27.185 34.224-20.875 20.875-46.117 36.652-73.789 45.997 51.7 70.634 113.474 132.406 184.108 184.108a192.323 192.323 0 0 1 45.997-73.789 192.174 192.174 0 0 1 31.554-25.486c22.574-14.563 51.337-13.957 73.546 1.578L887.133 698.9c22.209 15.534 32.526 42.72 26.457 69.177-8.131 34.953-25.851 66.992-51.337 92.479-36.773 36.773-86.047 56.191-135.926 56.191zM172.547 342.941l1.578 3.762c1.578 3.762 1.821 4.369 2.791 6.311l0.364 0.729c95.513 220.759 269.668 395.279 490.306 491.156l0.971 0.485c51.094 24.515 112.503 14.078 152.675-26.093 17.718-17.718 30.098-40.05 35.803-64.322 0.729-3.277-0.485-6.432-3.155-8.374L662.248 612.61c-2.548-1.821-5.947-1.942-8.496-0.364-7.888 5.098-15.292 11.044-21.967 17.84-18.326 18.326-30.947 41.385-36.287 66.75-3.035 14.078-12.743 25.607-26.093 30.947-13.471 5.34-28.521 3.641-40.414-4.611-89.687-62.138-166.753-139.203-229.012-229.012-8.253-11.893-9.952-26.943-4.611-40.414 5.34-13.349 16.869-23.18 30.947-26.093 25.244-5.34 48.423-17.962 66.75-36.287 7.282-7.282 13.593-15.292 19.054-23.908a7.695 7.695 0 0 0-0.242-8.617L278.863 168.787c-1.821-2.548-4.854-3.884-7.767-3.277-25.486 5.34-48.788 17.84-67.357 36.409-16.991 16.991-29.249 42.962-34.467 72.818-4.369 25.364-3.035 52.065 3.277 68.206z" p-id="6597"></path></svg>