<?xml version="1.0" standalone="no"?><!DOCTYPE svg PUBLIC "-//W3C//DTD SVG 1.1//EN" "http://www.w3.org/Graphics/SVG/1.1/DTD/svg11.dtd"><svg t="1623550529621" class="icon" viewBox="0 0 1024 1024" version="1.1" xmlns="http://www.w3.org/2000/svg" p-id="6443" xmlns:xlink="http://www.w3.org/1999/xlink" width="200" height="200"><defs><style type="text/css"></style></defs><path d="M794.01856 501.65888c-1.12896-2.33728-2.63936-4.53504-4.57728-6.47424L339.66336 45.40928c-9.2864-9.2864-24.34176-9.2864-33.62816 0l-71.45984 71.45856c-9.28512 9.2864-9.28512 24.34176 0 33.62816L596.08064 512 234.57536 873.504c-9.2864 9.2864-9.2864 24.34432 0 33.62944l71.45856 71.45856c9.2864 9.2864 24.34176 9.28512 33.62816-0.00128L717.9776 600.27648c0.00128-0.00128 0.00128-0.00256 0.00256-0.00256l71.45856-71.45856c0.58112-0.58112 1.12512-1.184 1.63328-1.80736C796.99456 519.74912 797.95968 509.81504 794.01856 501.65888L794.01856 501.65888z" p-id="6444"></path></svg>