<?xml version="1.0" standalone="no"?><!DOCTYPE svg PUBLIC "-//W3C//DTD SVG 1.1//EN" "http://www.w3.org/Graphics/SVG/1.1/DTD/svg11.dtd"><svg t="1624417603956" class="icon" viewBox="0 0 1024 1024" version="1.1" xmlns="http://www.w3.org/2000/svg" p-id="19625" xmlns:xlink="http://www.w3.org/1999/xlink" width="200" height="200"><defs><style type="text/css"></style></defs><path d="M658.5 611.7l-1.6 1.6c-20.2 20.2-53.1 20.2-73.3 0l-110-110.1-110.1 110.1c-19.9 20.6-52.7 21.2-73.3 1.3-20.6-19.9-21.2-52.7-1.3-73.3 0.4-0.4 0.8-0.9 1.3-1.3l146.6-146.6c11.2-11.2 26.8-16.6 42.5-14.8 11.4 1.2 22.3 6.2 31.1 14.9l109.9 109.9L803.6 320c20.6-19.9 53.4-19.3 73.3 1.3 19.4 20.1 19.4 51.9 0 72L658.5 611.7zM201.7 823.2h673.9c28.6 0 51.8 23.2 51.8 51.8s-23.2 51.8-51.8 51.8H149.8c-28.6 0-51.8-23.2-51.8-51.8V149.4c0-28.6 23.2-51.8 51.8-51.8s51.8 23.2 51.8 51.8v673.8z" p-id="19626"></path></svg>